<svg width="181" height="55" viewBox="0 0 181 55" fill="none" xmlns="http://www.w3.org/2000/svg">
<rect x="0.187012" width="180" height="55" rx="27.5" fill="#2C5F52"/>
<path d="M40.583 34V33.82L40.997 33.658C41.201 33.574 41.339 33.466 41.411 33.334C41.495 33.19 41.537 32.998 41.537 32.758V23.362C41.537 23.122 41.501 22.936 41.429 22.804C41.369 22.66 41.225 22.546 40.997 22.462L40.583 22.3V22.12H49.205L49.313 24.892H49.133L48.359 23.2C48.251 22.984 48.137 22.81 48.017 22.678C47.897 22.546 47.717 22.48 47.477 22.48H44.237V27.682H46.163C46.403 27.682 46.583 27.622 46.703 27.502C46.835 27.37 46.949 27.196 47.045 26.98L47.405 26.26H47.585V29.5H47.405L47.045 28.744C46.937 28.528 46.823 28.36 46.703 28.24C46.583 28.108 46.403 28.042 46.163 28.042H44.237V33.64H47.873C48.113 33.64 48.299 33.58 48.431 33.46C48.563 33.328 48.671 33.148 48.755 32.92L49.493 31.228H49.673L49.565 34H40.583ZM53.1594 34.27C52.4634 34.27 51.8754 34.072 51.3954 33.676C50.9274 33.28 50.6934 32.71 50.6934 31.966C50.6934 31.402 50.9814 30.886 51.5574 30.418C52.1334 29.938 53.0394 29.578 54.2754 29.338C54.4674 29.302 54.6834 29.266 54.9234 29.23C55.1634 29.182 55.4154 29.134 55.6794 29.086V27.664C55.6794 26.848 55.5774 26.278 55.3734 25.954C55.1814 25.618 54.8754 25.45 54.4554 25.45C54.1674 25.45 53.9394 25.546 53.7714 25.738C53.6034 25.918 53.4954 26.236 53.4474 26.692L53.4114 26.89C53.3874 27.406 53.2614 27.784 53.0334 28.024C52.8054 28.264 52.5234 28.384 52.1874 28.384C51.8754 28.384 51.6174 28.288 51.4134 28.096C51.2094 27.904 51.1074 27.646 51.1074 27.322C51.1074 26.83 51.2754 26.416 51.6114 26.08C51.9594 25.744 52.4154 25.492 52.9794 25.324C53.5434 25.156 54.1554 25.072 54.8154 25.072C55.8834 25.072 56.7054 25.336 57.2814 25.864C57.8694 26.38 58.1634 27.226 58.1634 28.402V32.38C58.1634 32.92 58.4154 33.19 58.9194 33.19H59.3154L59.4774 33.334C59.2494 33.622 58.9974 33.844 58.7214 34C58.4574 34.156 58.0794 34.234 57.5874 34.234C57.0594 34.234 56.6394 34.114 56.3274 33.874C56.0274 33.622 55.8294 33.292 55.7334 32.884C55.3734 33.268 55.0014 33.598 54.6174 33.874C54.2454 34.138 53.7594 34.27 53.1594 34.27ZM54.2574 33.172C54.4974 33.172 54.7194 33.118 54.9234 33.01C55.1394 32.89 55.3914 32.71 55.6794 32.47V29.446C55.5594 29.47 55.4394 29.494 55.3194 29.518C55.1994 29.542 55.0614 29.566 54.9054 29.59C54.3534 29.734 53.9094 29.98 53.5734 30.328C53.2494 30.664 53.0874 31.12 53.0874 31.696C53.0874 32.188 53.2014 32.56 53.4294 32.812C53.6574 33.052 53.9334 33.172 54.2574 33.172ZM59.8126 34V33.82L60.0826 33.748C60.3226 33.676 60.4846 33.568 60.5686 33.424C60.6646 33.28 60.7126 33.094 60.7126 32.866V27.232C60.7126 26.968 60.6646 26.776 60.5686 26.656C60.4846 26.524 60.3226 26.434 60.0826 26.386L59.8126 26.314V26.134L62.9086 25.09L63.0886 25.27L63.2506 26.818V26.962C63.4186 26.626 63.6346 26.32 63.8986 26.044C64.1746 25.756 64.4746 25.522 64.7986 25.342C65.1346 25.162 65.4646 25.072 65.7886 25.072C66.2446 25.072 66.5926 25.198 66.8326 25.45C67.0726 25.702 67.1926 26.02 67.1926 26.404C67.1926 26.812 67.0726 27.13 66.8326 27.358C66.6046 27.574 66.3286 27.682 66.0046 27.682C65.5006 27.682 65.0566 27.43 64.6726 26.926L64.6366 26.89C64.5166 26.722 64.3786 26.632 64.2226 26.62C64.0666 26.596 63.9226 26.668 63.7906 26.836C63.6706 26.944 63.5686 27.076 63.4846 27.232C63.4126 27.376 63.3406 27.544 63.2686 27.736V32.758C63.2686 33.238 63.4786 33.538 63.8986 33.658L64.4746 33.82V34H59.8126ZM67.4252 34V33.82L67.6412 33.748C68.0732 33.604 68.2892 33.304 68.2892 32.848V23.218C68.2892 22.978 68.2412 22.798 68.1452 22.678C68.0492 22.546 67.8812 22.45 67.6412 22.39L67.4072 22.336V22.156L70.7012 21.382L70.9172 21.544L70.8452 24.064V30.22C70.8452 30.664 70.8452 31.108 70.8452 31.552C70.8572 31.984 70.8632 32.416 70.8632 32.848C70.8632 33.088 70.9112 33.286 71.0072 33.442C71.1032 33.586 71.2652 33.694 71.4932 33.766L71.7272 33.82V34H67.4252ZM74.0018 38.32C73.5218 38.32 73.1378 38.2 72.8498 37.96C72.5738 37.72 72.4358 37.414 72.4358 37.042C72.4358 36.706 72.5558 36.436 72.7958 36.232C73.0358 36.028 73.3058 35.926 73.6058 35.926C73.9058 35.926 74.1578 35.986 74.3618 36.106C74.5658 36.238 74.7458 36.424 74.9018 36.664L75.0278 36.808C75.2918 37.168 75.5558 37.162 75.8198 36.79C75.9278 36.61 76.0478 36.37 76.1798 36.07C76.3238 35.782 76.4858 35.392 76.6658 34.9L73.1738 26.548C73.0898 26.32 72.9998 26.14 72.9038 26.008C72.8078 25.864 72.6518 25.744 72.4358 25.648L72.1118 25.522V25.342H76.5938V25.504L76.2338 25.648C75.9698 25.732 75.8318 25.87 75.8198 26.062C75.8198 26.242 75.8678 26.47 75.9638 26.746L77.8358 31.606L79.6178 26.692C79.7138 26.416 79.7498 26.188 79.7258 26.008C79.7018 25.816 79.5518 25.684 79.2758 25.612L78.8978 25.522V25.342H81.3998V25.522L81.0038 25.648C80.7278 25.732 80.5358 25.852 80.4278 26.008C80.3198 26.164 80.2178 26.38 80.1218 26.656L77.2238 34.558C76.7558 35.818 76.2878 36.76 75.8198 37.384C75.3518 38.008 74.7458 38.32 74.0018 38.32ZM85.7002 34V33.82L86.1502 33.658C86.3902 33.562 86.5762 33.448 86.7082 33.316C86.8402 33.172 86.9482 32.974 87.0322 32.722L90.7402 22.084H92.2702L95.9242 32.794C96.0202 33.058 96.1282 33.262 96.2482 33.406C96.3682 33.538 96.5542 33.652 96.8062 33.748L97.0222 33.82V34H92.4502V33.82L92.7202 33.73C92.9722 33.634 93.1222 33.502 93.1702 33.334C93.2302 33.154 93.2242 32.944 93.1522 32.704L92.3062 30.112H88.3102L87.4462 32.65C87.3622 32.914 87.3322 33.124 87.3562 33.28C87.3922 33.436 87.5362 33.562 87.7882 33.658L88.1842 33.82V34H85.7002ZM88.4362 29.752H92.1982L90.3802 24.154L88.4362 29.752ZM101.736 34.27C100.92 34.27 100.176 34.096 99.5036 33.748C98.8436 33.388 98.3156 32.872 97.9196 32.2C97.5356 31.516 97.3436 30.682 97.3436 29.698C97.3436 28.726 97.5536 27.898 97.9736 27.214C98.4056 26.518 98.9756 25.99 99.6836 25.63C100.404 25.258 101.19 25.072 102.042 25.072C102.738 25.072 103.326 25.186 103.806 25.414C104.286 25.642 104.652 25.942 104.904 26.314C105.156 26.674 105.282 27.052 105.282 27.448C105.282 27.784 105.18 28.048 104.976 28.24C104.772 28.42 104.508 28.51 104.184 28.51C103.836 28.51 103.554 28.384 103.338 28.132C103.122 27.88 102.996 27.55 102.96 27.142C102.948 26.878 102.954 26.656 102.978 26.476C103.002 26.284 103.002 26.092 102.978 25.9C102.93 25.696 102.852 25.564 102.744 25.504C102.648 25.432 102.51 25.396 102.33 25.396C101.598 25.396 101.028 25.714 100.62 26.35C100.224 26.986 100.026 28 100.026 29.392C100.026 30.604 100.248 31.534 100.692 32.182C101.148 32.818 101.844 33.136 102.78 33.136C103.344 33.136 103.8 33.034 104.148 32.83C104.496 32.626 104.832 32.32 105.156 31.912L105.336 32.056C105.036 32.764 104.574 33.31 103.95 33.694C103.326 34.078 102.588 34.27 101.736 34.27ZM110.525 34.27C109.709 34.27 108.965 34.096 108.293 33.748C107.633 33.388 107.105 32.872 106.709 32.2C106.325 31.516 106.133 30.682 106.133 29.698C106.133 28.726 106.343 27.898 106.763 27.214C107.195 26.518 107.765 25.99 108.473 25.63C109.193 25.258 109.979 25.072 110.831 25.072C111.527 25.072 112.115 25.186 112.595 25.414C113.075 25.642 113.441 25.942 113.693 26.314C113.945 26.674 114.071 27.052 114.071 27.448C114.071 27.784 113.969 28.048 113.765 28.24C113.561 28.42 113.297 28.51 112.973 28.51C112.625 28.51 112.343 28.384 112.127 28.132C111.911 27.88 111.785 27.55 111.749 27.142C111.737 26.878 111.743 26.656 111.767 26.476C111.791 26.284 111.791 26.092 111.767 25.9C111.719 25.696 111.641 25.564 111.533 25.504C111.437 25.432 111.299 25.396 111.119 25.396C110.387 25.396 109.817 25.714 109.409 26.35C109.013 26.986 108.815 28 108.815 29.392C108.815 30.604 109.037 31.534 109.481 32.182C109.937 32.818 110.633 33.136 111.569 33.136C112.133 33.136 112.589 33.034 112.937 32.83C113.285 32.626 113.621 32.32 113.945 31.912L114.125 32.056C113.825 32.764 113.363 33.31 112.739 33.694C112.115 34.078 111.377 34.27 110.525 34.27ZM119.368 25.072C120.148 25.072 120.814 25.234 121.366 25.558C121.918 25.87 122.338 26.302 122.626 26.854C122.926 27.394 123.076 28.012 123.076 28.708C123.076 28.84 123.07 28.978 123.058 29.122C123.046 29.254 123.022 29.374 122.986 29.482H117.622C117.634 30.778 117.862 31.714 118.306 32.29C118.762 32.854 119.434 33.136 120.322 33.136C120.922 33.136 121.408 33.04 121.78 32.848C122.152 32.656 122.5 32.374 122.824 32.002L123.004 32.164C122.632 32.824 122.134 33.34 121.51 33.712C120.898 34.084 120.16 34.27 119.296 34.27C118.444 34.27 117.688 34.09 117.028 33.73C116.368 33.358 115.852 32.83 115.48 32.146C115.108 31.462 114.922 30.646 114.922 29.698C114.922 28.714 115.138 27.88 115.57 27.196C116.002 26.5 116.554 25.972 117.226 25.612C117.91 25.252 118.624 25.072 119.368 25.072ZM119.314 25.432C118.966 25.432 118.666 25.54 118.414 25.756C118.174 25.96 117.982 26.332 117.838 26.872C117.706 27.4 117.634 28.15 117.622 29.122H120.7C120.82 27.814 120.772 26.872 120.556 26.296C120.34 25.72 119.926 25.432 119.314 25.432ZM127.087 34.27C126.499 34.27 125.971 34.198 125.503 34.054C125.035 33.922 124.603 33.754 124.207 33.55L124.225 31.408H124.405L125.017 32.488C125.281 32.968 125.569 33.328 125.881 33.568C126.205 33.796 126.613 33.91 127.105 33.91C127.681 33.91 128.143 33.784 128.491 33.532C128.851 33.268 129.031 32.92 129.031 32.488C129.031 32.092 128.905 31.768 128.653 31.516C128.401 31.264 127.933 31.036 127.249 30.832L126.493 30.598C125.761 30.382 125.185 30.046 124.765 29.59C124.345 29.134 124.135 28.576 124.135 27.916C124.135 27.124 124.447 26.452 125.071 25.9C125.695 25.348 126.589 25.072 127.753 25.072C128.221 25.072 128.659 25.126 129.067 25.234C129.487 25.33 129.889 25.48 130.273 25.684L130.165 27.628H129.985L129.355 26.512C129.127 26.116 128.899 25.84 128.671 25.684C128.455 25.516 128.125 25.432 127.681 25.432C127.273 25.432 126.889 25.546 126.529 25.774C126.169 26.002 125.989 26.326 125.989 26.746C125.989 27.154 126.139 27.478 126.439 27.718C126.751 27.958 127.207 28.18 127.807 28.384L128.617 28.618C129.481 28.882 130.099 29.248 130.471 29.716C130.843 30.172 131.029 30.724 131.029 31.372C131.029 32.248 130.681 32.95 129.985 33.478C129.301 34.006 128.335 34.27 127.087 34.27ZM134.927 34.27C134.339 34.27 133.811 34.198 133.343 34.054C132.875 33.922 132.443 33.754 132.047 33.55L132.065 31.408H132.245L132.857 32.488C133.121 32.968 133.409 33.328 133.721 33.568C134.045 33.796 134.453 33.91 134.945 33.91C135.521 33.91 135.983 33.784 136.331 33.532C136.691 33.268 136.871 32.92 136.871 32.488C136.871 32.092 136.745 31.768 136.493 31.516C136.241 31.264 135.773 31.036 135.089 30.832L134.333 30.598C133.601 30.382 133.025 30.046 132.605 29.59C132.185 29.134 131.975 28.576 131.975 27.916C131.975 27.124 132.287 26.452 132.911 25.9C133.535 25.348 134.429 25.072 135.593 25.072C136.061 25.072 136.499 25.126 136.907 25.234C137.327 25.33 137.729 25.48 138.113 25.684L138.005 27.628H137.825L137.195 26.512C136.967 26.116 136.739 25.84 136.511 25.684C136.295 25.516 135.965 25.432 135.521 25.432C135.113 25.432 134.729 25.546 134.369 25.774C134.009 26.002 133.829 26.326 133.829 26.746C133.829 27.154 133.979 27.478 134.279 27.718C134.591 27.958 135.047 28.18 135.647 28.384L136.457 28.618C137.321 28.882 137.939 29.248 138.311 29.716C138.683 30.172 138.869 30.724 138.869 31.372C138.869 32.248 138.521 32.95 137.825 33.478C137.141 34.006 136.175 34.27 134.927 34.27Z" fill="white"/>
</svg>
