<svg width="312" height="79" viewBox="0 0 312 79" fill="none" xmlns="http://www.w3.org/2000/svg">
<path d="M79.3857 50.0471C77.4716 50.0471 75.7253 49.6031 74.1467 48.7152C72.5681 47.8075 71.315 46.5545 70.3876 44.9561C69.4799 43.338 69.0261 41.5226 69.0261 39.5099C69.0261 37.4972 69.4799 35.6916 70.3876 34.0933C71.315 32.4752 72.5681 31.2222 74.1467 30.3342C75.7253 29.4265 77.4716 28.9727 79.3857 28.9727C81.3195 28.9727 83.0757 29.4265 84.6543 30.3342C86.2329 31.2222 87.4761 32.4654 88.3838 34.0637C89.2915 35.662 89.7453 37.4774 89.7453 39.5099C89.7453 41.5424 89.2915 43.3578 88.3838 44.9561C87.4761 46.5545 86.2329 47.8075 84.6543 48.7152C83.0757 49.6031 81.3195 50.0471 79.3857 50.0471ZM79.3857 47.7088C80.8262 47.7088 82.1187 47.3734 83.2632 46.7024C84.4274 46.0315 85.3351 45.0745 85.9863 43.8314C86.6572 42.5882 86.9926 41.1477 86.9926 39.5099C86.9926 37.8524 86.6572 36.4119 85.9863 35.1885C85.3351 33.9453 84.4372 32.9883 83.2928 32.3174C82.1483 31.6465 80.8459 31.311 79.3857 31.311C77.9255 31.311 76.6231 31.6465 75.4786 32.3174C74.3341 32.9883 73.4264 33.9453 72.7555 35.1885C72.1044 36.4119 71.7788 37.8524 71.7788 39.5099C71.7788 41.1477 72.1044 42.5882 72.7555 43.8314C73.4264 45.0745 74.3341 46.0315 75.4786 46.7024C76.6429 47.3734 77.9452 47.7088 79.3857 47.7088ZM107.686 33.6197V49.8399H104.993V47.4424C104.48 48.2712 103.759 48.9224 102.832 49.396C101.924 49.8498 100.918 50.0767 99.8129 50.0767C98.55 50.0767 97.4154 49.8202 96.409 49.3072C95.4026 48.7744 94.6035 47.9851 94.0115 46.9392C93.4393 45.8934 93.1531 44.6207 93.1531 43.121V33.6197H95.817V42.7658C95.817 44.3641 96.2216 45.5974 97.0306 46.4657C97.8396 47.3142 98.9447 47.7384 100.346 47.7384C101.786 47.7384 102.921 47.2944 103.75 46.4065C104.578 45.5185 104.993 44.226 104.993 42.529V33.6197H107.686ZM114.928 36.254C115.401 35.3266 116.072 34.6063 116.94 34.0933C117.828 33.5803 118.904 33.3237 120.167 33.3237V36.106H119.456C116.437 36.106 114.928 37.7438 114.928 41.0195V49.8399H112.234V33.6197H114.928V36.254ZM144.96 35.2477C144.96 36.9644 144.368 38.395 143.184 39.5395C142.02 40.6643 140.234 41.2266 137.827 41.2266H133.86V49.8399H131.167V29.2095H137.827C140.155 29.2095 141.921 29.7719 143.125 30.8966C144.348 32.0214 144.96 33.4717 144.96 35.2477ZM137.827 39.0067C139.326 39.0067 140.431 38.6811 141.142 38.03C141.852 37.3788 142.207 36.4514 142.207 35.2477C142.207 32.7022 140.747 31.4294 137.827 31.4294H133.86V39.0067H137.827ZM151.001 36.254C151.475 35.3266 152.146 34.6063 153.014 34.0933C153.902 33.5803 154.977 33.3237 156.24 33.3237V36.106H155.53C152.511 36.106 151.001 37.7438 151.001 41.0195V49.8399H148.308V33.6197H151.001V36.254ZM166.424 50.1063C164.904 50.1063 163.523 49.761 162.28 49.0704C161.056 48.3797 160.09 47.403 159.379 46.1401C158.688 44.8574 158.343 43.3775 158.343 41.7002C158.343 40.0427 158.698 38.5825 159.409 37.3196C160.139 36.037 161.125 35.0602 162.369 34.3893C163.612 33.6986 165.003 33.3533 166.542 33.3533C168.081 33.3533 169.472 33.6986 170.716 34.3893C171.959 35.0602 172.935 36.0271 173.646 37.29C174.376 38.5529 174.741 40.023 174.741 41.7002C174.741 43.3775 174.366 44.8574 173.616 46.1401C172.886 47.403 171.89 48.3797 170.627 49.0704C169.364 49.761 167.963 50.1063 166.424 50.1063ZM166.424 47.7384C167.391 47.7384 168.298 47.5115 169.147 47.0576C169.995 46.6038 170.676 45.923 171.189 45.0153C171.722 44.1076 171.988 43.0026 171.988 41.7002C171.988 40.3979 171.732 39.2928 171.219 38.3851C170.706 37.4774 170.035 36.8065 169.206 36.3724C168.377 35.9186 167.479 35.6916 166.512 35.6916C165.526 35.6916 164.618 35.9186 163.789 36.3724C162.98 36.8065 162.329 37.4774 161.836 38.3851C161.343 39.2928 161.096 40.3979 161.096 41.7002C161.096 43.0223 161.333 44.1372 161.806 45.0449C162.3 45.9526 162.951 46.6334 163.76 47.0872C164.569 47.5214 165.457 47.7384 166.424 47.7384ZM177.276 41.6706C177.276 40.0131 177.612 38.5627 178.282 37.3196C178.953 36.0567 179.871 35.0799 181.035 34.3893C182.219 33.6986 183.541 33.3533 185.001 33.3533C186.264 33.3533 187.438 33.6493 188.524 34.2413C189.609 34.8135 190.438 35.5732 191.01 36.5204V27.9367H193.733V49.8399H191.01V46.7912C190.477 47.7581 189.688 48.5573 188.642 49.1888C187.596 49.8005 186.373 50.1063 184.972 50.1063C183.531 50.1063 182.219 49.7511 181.035 49.0408C179.871 48.3304 178.953 47.3339 178.282 46.0513C177.612 44.7687 177.276 43.3084 177.276 41.6706ZM191.01 41.7002C191.01 40.4768 190.763 39.4112 190.27 38.5035C189.777 37.5958 189.106 36.9052 188.257 36.4316C187.429 35.9383 186.511 35.6916 185.505 35.6916C184.498 35.6916 183.581 35.9284 182.752 36.402C181.923 36.8756 181.262 37.5662 180.769 38.4739C180.275 39.3816 180.029 40.4472 180.029 41.6706C180.029 42.9138 180.275 43.9991 180.769 44.9265C181.262 45.8342 181.923 46.5347 182.752 47.028C183.581 47.5016 184.498 47.7384 185.505 47.7384C186.511 47.7384 187.429 47.5016 188.257 47.028C189.106 46.5347 189.777 45.8342 190.27 44.9265C190.763 43.9991 191.01 42.9237 191.01 41.7002ZM212.67 33.6197V49.8399H209.976V47.4424C209.463 48.2712 208.743 48.9224 207.816 49.396C206.908 49.8498 205.902 50.0767 204.797 50.0767C203.534 50.0767 202.399 49.8202 201.393 49.3072C200.386 48.7744 199.587 47.9851 198.995 46.9392C198.423 45.8934 198.137 44.6207 198.137 43.121V33.6197H200.801V42.7658C200.801 44.3641 201.205 45.5974 202.014 46.4657C202.823 47.3142 203.928 47.7384 205.329 47.7384C206.77 47.7384 207.904 47.2944 208.733 46.4065C209.562 45.5185 209.976 44.226 209.976 42.529V33.6197H212.67ZM216.211 41.7002C216.211 40.023 216.547 38.5627 217.218 37.3196C217.889 36.0567 218.816 35.0799 220 34.3893C221.204 33.6986 222.575 33.3533 224.114 33.3533C226.107 33.3533 227.745 33.8368 229.028 34.8037C230.33 35.7706 231.188 37.1124 231.603 38.8291H228.702C228.426 37.8425 227.883 37.0631 227.074 36.4908C226.285 35.9186 225.298 35.6324 224.114 35.6324C222.575 35.6324 221.332 36.1652 220.385 37.2308C219.438 38.2766 218.964 39.7664 218.964 41.7002C218.964 43.6538 219.438 45.1633 220.385 46.2289C221.332 47.2944 222.575 47.8272 224.114 47.8272C225.298 47.8272 226.285 47.551 227.074 46.9984C227.864 46.4459 228.406 45.6566 228.702 44.6305H231.603C231.169 46.2881 230.3 47.62 228.998 48.6264C227.696 49.613 226.068 50.1063 224.114 50.1063C222.575 50.1063 221.204 49.761 220 49.0704C218.816 48.3797 217.889 47.403 217.218 46.1401C216.547 44.8772 216.211 43.3972 216.211 41.7002ZM238.482 35.8396V45.4001C238.482 46.1894 238.65 46.7518 238.985 47.0872C239.321 47.403 239.903 47.5608 240.732 47.5608H242.715V49.8399H240.288C238.788 49.8399 237.663 49.4946 236.914 48.804C236.164 48.1133 235.789 46.9787 235.789 45.4001V35.8396H233.687V33.6197H235.789V29.5351H238.482V33.6197H242.715V35.8396H238.482Z" fill="black"/>
<rect x="0.547436" y="1.45576" width="310.358" height="76.7683" rx="38.3842" stroke="#2C5F52" stroke-width="1.09487"/>
</svg>
