<svg width="190" height="90" viewBox="0 0 190 90" fill="none" xmlns="http://www.w3.org/2000/svg">
<rect x="8.70801" y="8.93622" width="172.248" height="72.4045" rx="36.2023" fill="#2C5F52"/>
<path d="M72.2019 59.1385V58.7284L73.4322 58.4003C74.3891 58.1269 74.8676 57.4434 74.8676 56.3497V48.5576L68.1007 34.7778C67.8546 34.2309 67.6223 33.8208 67.4035 33.5474C67.2121 33.274 66.9114 33.0416 66.5013 32.8502L65.7631 32.4811V32.071H76.7541V32.4811L76.0159 32.7682C75.4144 33.0143 75.0863 33.356 75.0316 33.7935C74.977 34.2036 75.0863 34.7231 75.3597 35.3519L80.1991 46.0969L85.6126 34.9418C85.8313 34.5043 85.9133 34.0532 85.8586 33.5884C85.8313 33.1236 85.5442 32.8229 84.9974 32.6862L84.4232 32.4811V32.071H89.3446V32.4811L88.5654 32.7682C88.0459 32.9596 87.6631 33.233 87.4171 33.5884C87.171 33.9165 86.9249 34.3403 86.6789 34.8598L81.0603 46.671V56.3497C81.0603 56.8965 81.156 57.3477 81.3474 57.7031C81.5661 58.0312 81.9352 58.2636 82.4547 58.4003L83.726 58.7284V59.1385H72.2019ZM96.6943 38.7969C98.4714 38.7969 99.9889 39.166 101.247 39.9042C102.504 40.615 103.461 41.5993 104.117 42.857C104.801 44.0873 105.143 45.4954 105.143 47.0812C105.143 47.3819 105.129 47.6963 105.102 48.0244C105.074 48.3252 105.02 48.5986 104.938 48.8446H92.7162C92.7435 51.7975 93.263 53.93 94.2746 55.2424C95.3136 56.5274 96.8446 57.1699 98.8679 57.1699C100.235 57.1699 101.342 56.9512 102.19 56.5138C103.037 56.0763 103.83 55.4338 104.568 54.5862L104.979 54.9553C104.131 56.4591 102.996 57.6347 101.575 58.4823C100.18 59.3299 98.4988 59.7537 96.5302 59.7537C94.589 59.7537 92.8665 59.3435 91.3628 58.5233C89.859 57.6758 88.6834 56.4728 87.8358 54.9143C86.9883 53.3559 86.5645 51.4967 86.5645 49.3368C86.5645 47.0948 87.0566 45.1946 88.0409 43.6362C89.0252 42.0504 90.2828 40.8474 91.8139 40.0272C93.3724 39.207 94.9991 38.7969 96.6943 38.7969ZM96.5712 39.6171C95.7784 39.6171 95.0948 39.8632 94.5207 40.3553C93.9739 40.8201 93.5364 41.6677 93.2083 42.898C92.9076 44.101 92.7435 45.8098 92.7162 48.0244H99.7291C100.003 45.0443 99.8932 42.898 99.401 41.5856C98.9089 40.2733 97.9656 39.6171 96.5712 39.6171ZM114.281 59.7537C112.942 59.7537 111.739 59.5896 110.672 59.2615C109.606 58.9608 108.622 58.578 107.72 58.1132L107.761 53.2329H108.171L109.565 55.6935C110.167 56.7872 110.823 57.6074 111.534 58.1542C112.272 58.6737 113.201 58.9334 114.322 58.9334C115.635 58.9334 116.687 58.6464 117.48 58.0722C118.301 57.4707 118.711 56.6778 118.711 55.6935C118.711 54.7913 118.424 54.0531 117.849 53.4789C117.275 52.9048 116.209 52.3853 114.651 51.9205L112.928 51.3873C111.26 50.8952 109.948 50.1297 108.991 49.0907C108.034 48.0518 107.556 46.7804 107.556 45.2767C107.556 43.4722 108.266 41.9411 109.688 40.6834C111.11 39.4257 113.147 38.7969 115.799 38.7969C116.865 38.7969 117.863 38.9199 118.793 39.166C119.75 39.3847 120.666 39.7265 121.54 40.1913L121.294 44.6205H120.884L119.449 42.0778C118.929 41.1755 118.41 40.5467 117.89 40.1913C117.398 39.8085 116.646 39.6171 115.635 39.6171C114.705 39.6171 113.83 39.8768 113.01 40.3963C112.19 40.9158 111.78 41.654 111.78 42.6109C111.78 43.5405 112.121 44.2787 112.805 44.8255C113.516 45.3723 114.555 45.8782 115.922 46.343L117.767 46.8761C119.736 47.4776 121.144 48.3115 121.992 49.3778C122.839 50.4167 123.263 51.6744 123.263 53.1508C123.263 55.1467 122.47 56.7462 120.884 57.9492C119.326 59.1522 117.125 59.7537 114.281 59.7537Z" fill="white"/>
<rect x="1.5309" y="1.75922" width="186.602" height="86.7585" rx="43.3792" stroke="black" stroke-width="2.05057" stroke-dasharray="12.3 12.3"/>
</svg>
