<svg width="245" height="93" viewBox="0 0 245 93" fill="none" xmlns="http://www.w3.org/2000/svg">
<path d="M68.2471 80.4591C66.7038 80.4591 65.4691 80.0733 64.5431 79.3017C63.6557 78.53 63.212 77.5461 63.212 76.35C63.212 75.2697 63.5978 74.4016 64.3695 73.7457C65.1412 73.0898 66.0093 72.7618 66.9738 72.7618C67.9384 72.7618 68.7487 72.9547 69.4046 73.3406C70.0605 73.765 70.6392 74.363 71.1408 75.1347L71.5459 75.5977C72.3948 76.7552 73.2436 76.7359 74.0924 75.5398C74.4397 74.9611 74.8255 74.1894 75.2499 73.2248C75.7129 72.2988 76.2338 71.0449 76.8125 69.463L65.5849 42.6092C65.3148 41.8761 65.0254 41.2973 64.7167 40.8729C64.4081 40.4099 63.9065 40.0241 63.212 39.7154L62.1703 39.3103V38.7316H76.581V39.2524L75.4235 39.7154C74.5747 39.9855 74.131 40.4292 74.0924 41.0466C74.0924 41.6253 74.2468 42.3584 74.5554 43.2458L80.5744 58.8719L86.304 43.0722C86.6126 42.1848 86.7284 41.4517 86.6512 40.8729C86.574 40.2556 86.0917 39.8312 85.2043 39.5997L83.989 39.3103V38.7316H92.0335V39.3103L90.7603 39.7154C89.8729 39.9855 89.2556 40.3714 88.9083 40.8729C88.5611 41.3745 88.2331 42.069 87.9244 42.9564L78.6066 68.3634C77.1019 72.4146 75.5972 75.4433 74.0924 77.4497C72.5877 79.456 70.6392 80.4591 68.2471 80.4591ZM107.067 67.4374C104.135 67.4374 101.589 66.8393 99.4279 65.6433C97.2673 64.4086 95.5889 62.6724 94.3928 60.4345C93.2353 58.1967 92.6566 55.5731 92.6566 52.5636C92.6566 49.5541 93.2739 46.9498 94.5086 44.7505C95.7818 42.5513 97.4988 40.8536 99.6594 39.6576C101.859 38.4615 104.328 37.8635 107.067 37.8635C109.807 37.8635 112.257 38.4615 114.417 39.6576C116.578 40.8151 118.276 42.4934 119.51 44.6927C120.784 46.8919 121.42 49.5155 121.42 52.5636C121.42 55.6117 120.822 58.2546 119.626 60.4924C118.469 62.6916 116.81 64.4086 114.649 65.6433C112.527 66.8393 110 67.4374 107.067 67.4374ZM107.067 66.2799C108.418 66.2799 109.498 65.894 110.308 65.1224C111.119 64.3507 111.697 62.981 112.045 61.0133C112.43 59.0456 112.623 56.2676 112.623 52.6793C112.623 49.0525 112.43 46.2553 112.045 44.2875C111.697 42.3198 111.119 40.9501 110.308 40.1784C109.498 39.4068 108.418 39.0209 107.067 39.0209C105.717 39.0209 104.617 39.4068 103.769 40.1784C102.958 40.9501 102.36 42.3198 101.974 44.2875C101.627 46.2553 101.454 49.0525 101.454 52.6793C101.454 56.2676 101.627 59.0456 101.974 61.0133C102.36 62.981 102.958 64.3507 103.769 65.1224C104.617 65.894 105.717 66.2799 107.067 66.2799ZM134.211 67.4374C132.707 67.4374 131.318 67.148 130.044 66.5692C128.81 65.9905 127.826 65.0645 127.093 63.7913C126.398 62.4794 126.07 60.7625 126.109 58.6404L126.283 43.7667C126.283 42.8793 126.128 42.2426 125.82 41.8568C125.511 41.471 125.029 41.2009 124.373 41.0466L123.678 40.8151V40.2363L134.038 38.2107L134.617 38.7895L134.327 47.0076V60.9554C134.327 62.1901 134.674 63.0968 135.369 63.6755C136.102 64.2543 137.009 64.5436 138.089 64.5436C139.169 64.5436 140.134 64.3893 140.983 64.0806C141.832 63.772 142.68 63.309 143.529 62.6916L143.761 43.8245C143.761 42.9371 143.626 42.3198 143.356 41.9726C143.086 41.5867 142.584 41.3166 141.851 41.1623L141.272 40.9887V40.4099L151.4 38.2107L151.979 38.7895L151.805 47.0076V62.6916C151.805 63.5405 151.921 64.1964 152.153 64.6594C152.384 65.1224 152.886 65.5082 153.657 65.8169L154.236 65.9905V66.5692L144.108 67.148L143.587 63.7334C142.314 64.7751 140.925 65.6625 139.42 66.3956C137.954 67.0901 136.218 67.4374 134.211 67.4374ZM156.573 66.5692V65.9905L157.441 65.759C158.213 65.5275 158.734 65.1803 159.004 64.7173C159.313 64.2543 159.467 63.6562 159.467 62.9231V44.8084C159.467 43.9596 159.313 43.3422 159.004 42.9564C158.734 42.532 158.213 42.2426 157.441 42.0883L156.573 41.8568V41.2781L166.528 37.9213L167.106 38.5001L167.627 43.4773V43.9403C168.167 42.86 168.862 41.8761 169.711 40.9887C170.598 40.0627 171.563 39.3103 172.604 38.7316C173.685 38.1528 174.746 37.8635 175.788 37.8635C177.254 37.8635 178.373 38.2686 179.144 39.0788C179.916 39.8891 180.302 40.9115 180.302 42.1462C180.302 43.458 179.916 44.4804 179.144 45.2135C178.411 45.908 177.524 46.2553 176.482 46.2553C174.862 46.2553 173.434 45.445 172.199 43.8245L172.084 43.7088C171.698 43.1686 171.254 42.8793 170.752 42.8407C170.251 42.7635 169.788 42.995 169.363 43.5352C168.978 43.8824 168.65 44.3068 168.38 44.8084C168.148 45.2714 167.917 45.8116 167.685 46.4289V62.5759C167.685 64.1192 168.36 65.0838 169.711 65.4696L171.563 65.9905V66.5692H156.573Z" fill="#2C5F52"/>
<rect x="1.45681" y="0.851097" width="241.711" height="90.4363" rx="45.2181" stroke="#2C5F52" stroke-width="1.70219" stroke-dasharray="8.51 8.51"/>
</svg>
